# Blender v2.93.0 OBJ File: ''
# www.blender.org
mtllib untitled.mtl
o Cube
v 1.838768 -0.460536 0.080730
v 0.138088 -1.723377 0.104428
v 0.692923 0.721458 1.413986
v -0.840579 -0.562407 1.406103
v 0.840579 0.562407 -1.406103
v -0.692923 -0.721458 -1.413986
v -0.138088 1.723377 -0.104428
v -1.671591 0.439512 -0.112311
vt 0.625000 0.500000
vt 0.875000 0.500000
vt 0.875000 0.750000
vt 0.625000 0.750000
vt 0.375000 0.750000
vt 0.625000 1.000000
vt 0.375000 1.000000
vt 0.375000 0.000000
vt 0.625000 0.000000
vt 0.625000 0.250000
vt 0.375000 0.250000
vt 0.125000 0.500000
vt 0.375000 0.500000
vt 0.125000 0.750000
vn 0.7413 0.6711 0.0010
vn -0.4893 0.5805 0.6508
vn -0.4155 0.5010 -0.7592
vn -0.7668 -0.6419 -0.0039
vn 0.3988 -0.5017 0.7676
vn 0.4565 -0.5839 -0.6713
usemtl Material
s off
f 1/1/1 5/2/1 7/3/1 3/4/1
f 4/5/2 3/4/2 7/6/2 8/7/2
f 8/8/3 7/9/3 5/10/3 6/11/3
f 6/12/4 2/13/4 4/5/4 8/14/4
f 2/13/5 1/1/5 3/4/5 4/5/5
f 6/11/6 5/10/6 1/1/6 2/13/6
